<svg width="104" height="89" viewBox="0 0 104 89" fill="none" xmlns="http://www.w3.org/2000/svg">
    <path d="M97.3769 9.50043L52.3037 1.88571C49.5518 1.42082 46.9442 3.27474 46.4793 6.02656L35.0508 73.6742C34.5859 76.4261 36.4398 79.0337 39.1916 79.4986L84.2649 87.1133C87.0167 87.5782 89.6243 85.7243 90.0892 82.9725L101.518 15.3248C101.983 12.573 100.129 9.96533 97.3769 9.50043Z"
          fill="#E0E0E0"/>
    <path d="M84.1139 88.0072L39.0407 80.3925C35.8008 79.8452 33.6095 76.764 34.157 73.5233L45.5855 5.87561C46.1328 2.6357 49.2138 0.445278 52.4546 0.992772L97.5278 8.60749C100.769 9.15499 102.959 12.236 102.412 15.4759L90.9831 83.1236C90.4358 86.3635 87.3546 88.5547 84.1139 88.0072ZM52.1527 2.77959C49.8982 2.3987 47.754 3.92308 47.3731 6.17761L35.9447 73.8253C35.5638 76.0798 37.088 78.2248 39.3425 78.6057L84.4158 86.2204C86.6703 86.6013 88.8153 85.0771 89.1963 82.8217L100.625 15.174C101.006 12.9195 99.4813 10.7753 97.2259 10.3943L52.1527 2.77959Z"
          fill="black"/>
    <path d="M53.3386 3.47123L98.4118 11.0859C98.6789 11.1311 98.9355 11.2035 99.1802 11.2954C98.636 10.8431 97.9723 10.5204 97.2258 10.3942L52.1526 2.77953C49.8981 2.39864 47.7531 3.92288 47.3722 6.17741L35.9437 73.8251C35.6564 75.5262 36.4541 77.1632 37.8307 78.0284C37.0989 77.1061 36.7366 75.8962 36.9478 74.6461L48.3763 6.99845C48.7716 4.65819 50.9975 3.07572 53.3369 3.47094L53.3386 3.47123Z"
          fill="white"/>
    <g opacity="0.2">
        <path d="M94.9056 9.60083C94.9056 9.60083 82.9404 74.0009 35.582 72.9457L36.9927 79.3703L89.3306 88.2123L101.809 14.3494L99.3286 10.3857L94.9055 9.60166L94.9056 9.60083Z"
              fill="black"/>
    </g>
    <path d="M94.5133 15.2329L53.126 8.24086C51.8644 8.02771 50.6688 8.87772 50.4556 10.1394L40.1573 71.0976C39.9441 72.3593 40.7941 73.5549 42.0558 73.768L83.443 80.76C84.7047 80.9732 85.9003 80.1232 86.1135 78.8615L96.4118 17.9033C96.625 16.6416 95.775 15.446 94.5133 15.2329Z"
          fill="url(#paint0_linear_223_360)"/>
    <path d="M83.3299 81.4292L41.9418 74.437C40.3123 74.1617 39.2112 72.613 39.4865 70.9835L49.7848 10.0253C50.06 8.39662 51.6089 7.2947 53.2384 7.56999L94.6264 14.5621C96.2551 14.8373 97.3561 16.3869 97.0809 18.0156L86.7825 78.9746C86.5073 80.6032 84.9584 81.7052 83.3297 81.43L83.3299 81.4292ZM53.0119 8.91073C52.1222 8.76043 51.2758 9.36215 51.1255 10.2518L40.8271 71.2108C40.6768 72.1005 41.2785 72.9468 42.1682 73.0971L83.5562 80.0893C84.4459 80.2396 85.2922 79.6379 85.4425 78.7482L95.741 17.7892C95.8913 16.8995 95.2896 16.0532 94.3999 15.9029L53.0119 8.91073Z"
          fill="black"/>
    <g opacity="0.2">
        <path d="M41.7356 73.3176L52.034 12.3586C52.2472 11.0969 53.4428 10.2469 54.7045 10.4601L96.0925 17.4522C96.2132 17.4726 96.3293 17.505 96.442 17.5421C96.456 16.4205 95.6545 15.424 94.5144 15.2314L53.1263 8.23922C51.8646 8.02607 50.669 8.87609 50.4559 10.1378L40.1574 71.0967C39.9648 72.2369 40.6427 73.3213 41.7066 73.6765C41.7078 73.5577 41.7161 73.4376 41.7365 73.3169L41.7356 73.3176Z"
              fill="black"/>
    </g>
    <path d="M79.2799 10.2429L72.9483 9.17318C72.7019 9.13157 72.5351 8.89794 72.5768 8.65077C72.6186 8.40359 72.8521 8.2376 73.0993 8.27936L79.4309 9.34904C79.6773 9.39066 79.8441 9.62428 79.8023 9.87145C79.7606 10.1186 79.5271 10.2846 79.2799 10.2429Z"
          fill="black"/>
    <path d="M69.9034 8.83496C70.2574 8.81213 70.5258 8.50664 70.503 8.15264C70.4801 7.79864 70.1747 7.53018 69.8207 7.55301C69.4667 7.57585 69.1982 7.88134 69.221 8.23534C69.2439 8.58934 69.5494 8.8578 69.9034 8.83496Z"
          fill="black"/>
    <g opacity="0.2">
        <path d="M89.0171 59.7987C89.0171 59.7987 87.4128 81.4958 61.7332 77.1575L84.351 80.9785L85.8998 80.2926L89.0171 59.7987Z"
              fill="black"/>
    </g>
    <path d="M31.8987 3.92829L6.61853 9.08442C3.51442 9.71753 1.51129 12.7472 2.1444 15.8513L14.2302 75.1073C14.8633 78.2114 17.893 80.2145 20.9971 79.5814L46.2773 74.4253C49.3814 73.7922 51.3845 70.7625 50.7514 67.6584L38.6655 8.40242C38.0324 5.29831 35.0028 3.29517 31.8987 3.92829Z"
          fill="#E0E0E0"/>
    <path d="M34.8111 68.5927L29.2646 69.7239C28.7428 69.8304 28.4061 70.3396 28.5125 70.8614L28.7388 71.9711C28.8453 72.4928 29.3545 72.8295 29.8763 72.7231L35.4228 71.5919C35.9446 71.4854 36.2813 70.9762 36.1748 70.4544L35.9485 69.3447C35.8421 68.823 35.3328 68.4863 34.8111 68.5927Z"
          fill="black"/>
    <path d="M32.0677 4.75697C34.714 4.21724 37.297 5.92508 37.8367 8.57137L49.9226 67.8274C50.4623 70.4737 48.7545 73.0567 46.1082 73.5964L20.829 78.7523C18.1827 79.2921 15.5997 77.5842 15.06 74.938L2.97415 15.6819C2.43441 13.0356 4.14225 10.4526 6.78854 9.91291L32.0677 4.75697ZM31.7294 3.09842L6.45026 8.25435C2.89322 8.97985 0.590304 12.4642 1.31559 16.0202L13.4014 75.2762C14.1269 78.8333 17.6112 81.1362 21.1673 80.4109L46.4465 75.255C50.0035 74.5295 52.3064 71.0452 51.5811 67.4891L39.4953 8.23309C38.7698 4.67605 35.2855 2.37313 31.7294 3.09842Z"
          fill="black"/>
    <g opacity="0.2">
        <path d="M49.6229 63.8367L49.8112 63.7389L37.841 6.36704L35.5501 4.21226C35.5501 4.21226 36.6883 11.9118 33.8009 12.3518L45.6123 62.67L46.118 62.8521L46.1079 62.874L43.8734 63.9931C43.8734 63.9931 41.6524 74.2709 16.7343 77.3528L18.8483 78.8595L20.5179 78.897L48.5143 73.1869L49.7138 70.9856L50.7645 69.403C50.7645 69.403 50.2243 66.8057 49.6241 63.8375L49.6229 63.8367Z"
              fill="black"/>
    </g>
    <path d="M18.2931 68.596C17.5243 68.7528 16.7708 68.2546 16.614 67.4858L6.87063 19.7147C6.71383 18.9459 7.21201 18.1924 7.98081 18.0356L34.1507 12.698C34.9195 12.5412 35.674 13.0392 35.8308 13.808L45.5744 61.5801C45.7312 62.3489 45.232 63.1026 44.4632 63.2594L18.2933 68.597L18.2931 68.596Z"
          fill="url(#paint1_linear_223_360)"/>
    <path d="M34.2526 13.1959C34.7474 13.095 35.2313 13.4149 35.3322 13.9098L45.0756 61.6809C45.1765 62.1757 44.8566 62.6596 44.3618 62.7605L18.1918 68.0981C17.697 68.1991 17.2131 67.8791 17.1122 67.3843L7.36878 19.6132C7.26785 19.1183 7.58777 18.6344 8.08264 18.5335L34.2526 13.1959ZM34.0497 12.2012L7.87975 17.5388C6.83504 17.7519 6.15997 18.7715 6.37326 19.8173L16.1166 67.5884C16.3297 68.6331 17.3494 69.3081 18.3951 69.0949L44.5651 63.7572C45.6098 63.5442 46.2848 62.5245 46.0716 61.4788L36.328 13.7067C36.1149 12.6619 35.0952 11.9869 34.0495 12.2002L34.0497 12.2012Z"
          fill="black"/>
    <g opacity="0.2">
        <path d="M18.3935 68.2715L8.81899 21.3282C8.60958 20.3015 9.27251 19.2988 10.2992 19.0894L36.0153 13.8444C36.0273 13.8419 36.0387 13.8417 36.0497 13.8394C35.7136 13.0083 34.8232 12.5078 33.9135 12.6934L8.19739 17.9384C7.17067 18.1478 6.50774 19.1505 6.71715 20.1772L16.2915 67.1195C16.4987 68.1353 17.4805 68.7931 18.4949 68.6049C18.4512 68.4982 18.4162 68.3877 18.3923 68.2707L18.3935 68.2715Z"
              fill="black"/>
    </g>
    <path d="M15.7595 13.3024C15.8178 13.5883 15.633 13.8665 15.3481 13.9246C15.0631 13.9828 14.7839 13.7981 14.7258 13.5132C14.6677 13.2283 14.8523 12.949 15.1372 12.8909C15.4221 12.8328 15.7014 13.0174 15.7595 13.3024Z"
          fill="black"/>
    <path d="M18.1335 12.741C18.9117 12.2375 19.742 11.9891 20.5849 11.8026C21.4331 11.6421 22.2944 11.5455 23.2081 11.7059C22.4302 12.2113 21.5999 12.4598 20.7566 12.6443C19.908 12.8028 19.0467 12.8994 18.1335 12.741Z"
          fill="black"/>
    <path d="M20.1574 10.1549C20.5246 10.08 20.7616 9.72167 20.6867 9.3545C20.6118 8.98733 20.2534 8.75039 19.8863 8.82528C19.5191 8.90017 19.2821 9.25853 19.357 9.6257C19.4319 9.99287 19.7903 10.2298 20.1574 10.1549Z"
          fill="black"/>
    <path d="M34.4166 46.149C34.3802 46.2331 34.3223 46.3061 34.2488 46.3607C34.1752 46.4153 34.0886 46.4496 33.9976 46.4601L21.5589 47.8979C21.4679 47.9083 21.3759 47.8946 21.2919 47.8582C21.2079 47.8217 21.135 47.7639 21.0805 47.6903C21.0259 47.6168 20.9917 47.5303 20.9812 47.4393C20.9707 47.3484 20.9843 47.2563 21.0207 47.1723C21.8102 45.3524 23.1893 43.9535 24.8968 43.1686C23.9586 42.7475 23.1847 42.0302 22.6937 41.1267C22.2027 40.2232 22.0219 39.1835 22.1791 38.1673C22.3362 37.151 22.8225 36.2145 23.5634 35.5015C24.3044 34.7884 25.2588 34.3383 26.2803 34.2202C27.3018 34.1021 28.3338 34.3226 29.2179 34.8479C30.1019 35.3731 30.7891 36.174 31.1739 37.1275C31.5587 38.0811 31.6199 39.1346 31.348 40.1263C31.0761 41.118 30.4862 41.993 29.6688 42.617C31.5103 42.9917 33.1722 44.0391 34.3561 45.6308C34.4107 45.7043 34.4451 45.7909 34.4558 45.8818C34.4664 45.9728 34.4529 46.0649 34.4166 46.149Z"
          fill="white"/>
    <g clip-path="url(#clip0_223_360)">
        <path d="M75.1109 49.4548C75.0558 49.528 74.9825 49.5855 74.8982 49.6213C74.8139 49.6572 74.7216 49.6702 74.6307 49.6591L62.2011 48.1444C62.1102 48.1333 62.0239 48.0984 61.9508 48.0433C61.8777 47.9883 61.8204 47.9149 61.7846 47.8307C61.7488 47.7464 61.7358 47.6542 61.7469 47.5634C61.758 47.4725 61.7928 47.3862 61.8478 47.313C63.0415 45.7286 64.7098 44.6915 66.5535 44.3282C65.7401 43.6992 65.1556 42.8205 64.8898 41.8272C64.6241 40.8338 64.6917 39.7807 65.0824 38.8295C65.4731 37.8784 66.1653 37.0817 67.0525 36.562C67.9398 36.0422 68.9732 35.8281 69.9939 35.9525C71.0146 36.0769 71.9663 36.5329 72.7028 37.2505C73.4393 37.9681 73.9198 38.9077 74.0707 39.9248C74.2215 40.942 74.0343 41.9805 73.5378 42.881C73.0412 43.7815 72.2628 44.494 71.3221 44.9093C73.0247 45.7048 74.3951 47.1122 75.1734 48.9368C75.2093 49.0211 75.2225 49.1133 75.2115 49.2042C75.2006 49.2951 75.1658 49.3816 75.1109 49.4548Z"
              fill="white"/>
    </g>
    <defs>
        <linearGradient id="paint0_linear_223_360" x1="73.8197" y1="11.7369" x2="62.7494" y2="77.264"
                        gradientUnits="userSpaceOnUse">
            <stop stop-color="#BC1F7D"/>
            <stop offset="1" stop-color="#E674CC"/>
        </linearGradient>
        <linearGradient id="paint1_linear_223_360" x1="21.0663" y1="15.3667" x2="31.3788" y2="65.9281"
                        gradientUnits="userSpaceOnUse">
            <stop stop-color="#3EA9F7"/>
            <stop offset="1" stop-color="#633EF7"/>
        </linearGradient>
        <clipPath id="clip0_223_360">
            <rect width="16.6954" height="16.6954" fill="white" transform="translate(61.8965 33.3908) rotate(6.94776)"/>
        </clipPath>
    </defs>
</svg>
