<svg width="125" height="78" viewBox="0 0 125 78" fill="none" xmlns="http://www.w3.org/2000/svg">
    <path d="M18.1479 1.07922L106.851 1.07922C111.225 1.07922 114.776 4.63031 114.776 9.00428V68.6954L10.2239 68.6954L10.2239 9.00428C10.2239 4.63031 13.775 1.07922 18.1489 1.07922H18.1479Z"
          fill="#6C7A89"/>
    <path d="M114.775 69.7747L10.2228 69.7747C9.62674 69.7747 9.14355 69.2915 9.14355 68.6954L9.14355 9.0043C9.14355 4.03954 13.1831 0 18.1479 0L106.851 0C111.816 0 115.855 4.03954 115.855 9.0043V68.6954C115.855 69.2915 115.372 69.7747 114.776 69.7747H114.775ZM11.3021 67.6161L113.696 67.6161V9.0043C113.696 5.22956 110.625 2.1585 106.85 2.1585L18.1479 2.1585C14.3731 2.1585 11.3021 5.22956 11.3021 9.0043L11.3021 67.6161Z"
          fill="black"/>
    <g opacity="0.5">
        <path d="M13.1917 10.0836C13.1917 6.30887 16.2628 3.23886 20.0375 3.23886L108.741 3.23886C109.584 3.23886 110.392 3.39289 111.138 3.67351C109.963 2.72824 108.473 2.15961 106.851 2.15961L18.148 2.15961C14.3733 2.15961 11.3022 5.23067 11.3022 9.00436L11.3022 67.6162H13.1907L13.1907 10.0836H13.1917Z"
              fill="white"/>
    </g>
    <g opacity="0.5">
        <path d="M67.7986 4.86573C66.8892 4.76656 65.9798 4.72119 65.0704 4.72225C64.161 4.72225 63.2516 4.76867 62.3422 4.86783C61.4328 4.97228 60.5234 5.11681 59.614 5.39638C60.5234 5.67595 61.4328 5.82049 62.3422 5.92493C63.2516 6.0241 64.161 6.06946 65.0704 6.07052C65.9798 6.07157 66.8892 6.02515 67.7986 5.92704C68.708 5.82365 69.6174 5.67806 70.5268 5.39638C69.6174 5.11576 68.708 4.97017 67.7986 4.86573Z"
              fill="white"/>
        <path d="M56.8156 6.46987C57.4097 6.37343 57.8131 5.81364 57.7167 5.21953C57.6202 4.62543 57.0605 4.22199 56.4663 4.31843C55.8722 4.41486 55.4688 4.97466 55.5652 5.56876C55.6617 6.16287 56.2215 6.56631 56.8156 6.46987Z"
              fill="white"/>
    </g>
    <g opacity="0.5">
        <path d="M21.1102 8.80603L106.253 8.80603C108.197 8.80603 109.776 10.3843 109.776 12.3297V60.5362C109.776 62.4806 108.197 64.0599 106.253 64.0599H21.1091C19.1648 64.0599 17.5854 62.4816 17.5854 60.5362L17.5854 12.3297C17.5854 10.3853 19.1648 8.80603 21.1091 8.80603H21.1102Z"
              fill="white"/>
    </g>
    <g opacity="0.2">
        <path d="M11.0108 66.2363L11.0171 68.6955L114.775 68.6955V9.0044C114.775 4.62726 111.227 1.07935 106.85 1.07935L85.1552 1.07935C85.1552 1.07935 96.0195 61.8908 11.0098 66.2363H11.0108Z"
              fill="black"/>
    </g>
    <path d="M2.72382 67.8652L122.274 67.8652C123.182 67.8652 123.918 68.6026 123.918 69.5099C123.918 73.3669 120.787 76.4981 116.93 76.4981L8.06733 76.4981C4.2103 76.4981 1.0791 73.3669 1.0791 69.5099C1.0791 68.6015 1.81654 67.8652 2.72382 67.8652Z"
          fill="#D0D0D0"/>
    <path d="M116.931 77.5784L8.06748 77.5784C3.6186 77.5784 0 73.9587 0 69.5109C0 68.0086 1.22167 66.7859 2.72503 66.7859L122.275 66.7859C123.777 66.7859 125 68.0086 125 69.5109C125 73.9598 121.381 77.5784 116.933 77.5784H116.931ZM2.72397 68.9444C2.4117 68.9444 2.15745 69.1976 2.15745 69.5099C2.15745 72.7677 4.80863 75.4188 8.06748 75.4188L116.93 75.4188C120.188 75.4188 122.839 72.7677 122.839 69.5099C122.839 69.1976 122.585 68.9444 122.273 68.9444L2.72397 68.9444Z"
          fill="black"/>
    <g opacity="0.7">
        <path d="M4.58678 70.8602C4.58678 70.548 4.84103 70.2948 5.15225 70.2948L122.786 70.2948C122.82 70.0384 122.84 69.7768 122.84 69.5109C122.84 69.1986 122.586 68.9454 122.275 68.9454L2.72368 68.9454C2.4114 68.9454 2.1582 69.1997 2.1582 69.5109C2.1582 72.2264 3.99915 74.5179 6.49841 75.2068C5.32422 74.1265 4.58678 72.5777 4.58678 70.8602Z"
              fill="white"/>
    </g>
    <g opacity="0.2">
        <path d="M122.274 67.8653L72.7658 67.9434C72.7658 67.9434 62.3425 75.4696 5.22559 75.6532L120.265 75.6532C122.442 74.4695 123.92 72.1622 123.92 69.51C123.92 68.6017 123.184 67.8653 122.275 67.8653H122.274Z"
              fill="black"/>
    </g>
    <path d="M105.071 8.65833L19.9287 8.65833C18.3905 8.65833 17.1436 9.90528 17.1436 11.4435L17.1436 59.649C17.1436 61.1872 18.3905 62.4341 19.9287 62.4341L105.071 62.4341C106.61 62.4341 107.857 61.1872 107.857 59.649V11.4435C107.857 9.90528 106.61 8.65833 105.071 8.65833Z"
          fill="url(#paint0_linear_223_317)"/>
    <g filter="url(#filter0_d_223_317)">
        <path d="M62.4731 8.65833L18.5794 8.65833C17.7864 8.65833 17.1436 9.90528 17.1436 11.4435L17.1436 59.649C17.1436 61.1872 17.7864 62.4341 18.5794 62.4341L62.4731 62.4341C63.2661 62.4341 63.9089 61.1872 63.9089 59.649V11.4435C63.9089 9.90528 63.2661 8.65833 62.4731 8.65833Z"
              fill="url(#paint1_linear_223_317)"/>
    </g>
    <path d="M105.071 63.3783L19.9276 63.3783C17.8715 63.3783 16.1982 61.7051 16.1982 59.649L16.1982 11.4424C16.1982 9.38628 17.8704 7.71307 19.9276 7.71307L105.071 7.71307C107.127 7.71307 108.801 9.38628 108.801 11.4424V59.649C108.801 61.7051 107.129 63.3783 105.071 63.3783ZM19.9276 9.60255C18.9127 9.60255 18.0867 10.4276 18.0867 11.4424L18.0867 59.649C18.0867 60.6639 18.9127 61.4889 19.9276 61.4889L105.071 61.4889C106.086 61.4889 106.912 60.6639 106.912 59.649V11.4424C106.912 10.4276 106.086 9.60255 105.071 9.60255L19.9276 9.60255Z"
          fill="black"/>
    <g opacity="0.2">
        <path d="M20.6523 14.294C20.6523 12.7559 21.8993 11.5089 23.4374 11.5089L107.855 11.5089V11.4414C107.855 9.90318 106.608 8.65619 105.07 8.65619L19.9275 8.65619C18.3893 8.65619 17.1423 9.90318 17.1423 11.4414L17.1423 59.6479C17.1423 61.1861 18.3893 62.433 19.9275 62.433H20.6523L20.6523 14.294Z"
              fill="black"/>
    </g>
    <path d="M47.1243 67.8652H77.8751V68.6575C77.8751 70.3793 76.4772 71.7782 74.7544 71.7782H50.2439C48.5222 71.7782 47.1233 70.3803 47.1233 68.6575V67.8652H47.1243Z"
          fill="#F5F5F5"/>
    <path d="M74.7543 72.5873H50.2438C48.0768 72.5873 46.314 70.8244 46.314 68.6574V67.8651C46.314 67.4178 46.6769 67.056 47.1242 67.056H77.8749C78.3222 67.056 78.6852 67.4189 78.6852 67.8651V68.6574C78.6852 70.8244 76.9223 72.5873 74.7553 72.5873H74.7543ZM47.9334 68.6754C47.9429 69.9414 48.9757 70.9689 50.2438 70.9689H74.7543C76.0224 70.9689 77.0552 69.9424 77.0647 68.6754H47.9334Z"
          fill="black"/>
    <path d="M59.0752 4.85712C60.894 4.32541 62.7128 4.20514 64.5305 4.18298C66.3493 4.20303 68.1681 4.32224 69.9859 4.85712C68.1671 5.392 66.3483 5.51121 64.5305 5.53126C62.7117 5.50805 60.8929 5.38883 59.0752 4.85712Z"
          fill="black"/>
    <path d="M56.1008 5.94694C56.7027 5.94694 57.1906 5.45901 57.1906 4.85713C57.1906 4.25525 56.7027 3.76733 56.1008 3.76733C55.4989 3.76733 55.011 4.25525 55.011 4.85713C55.011 5.45901 55.4989 5.94694 56.1008 5.94694Z"
          fill="black"/>
    <g opacity="0.2">
        <path d="M107.27 43.0909C107.27 43.0909 112.222 63.4479 68.0459 61.9899H106.107L107.834 60.1247L107.269 43.0898L107.27 43.0909Z"
              fill="black"/>
    </g>
    <g opacity="0.2">
        <path d="M71.0331 67.8651C71.0331 67.8651 69.8114 71.2601 48.6262 70.7167L49.5546 71.796L74.6991 71.8034L76.3291 70.9889L77.959 68.0012L71.0331 67.8651Z"
              fill="#6D4C41"/>
    </g>
    <path d="M48.8823 43.8592C48.8311 43.948 48.7574 44.0217 48.6686 44.0729C48.5799 44.1241 48.4792 44.1511 48.3767 44.1511H34.3678C34.2654 44.151 34.1648 44.1239 34.0761 44.0726C33.9875 44.0214 33.9139 43.9477 33.8627 43.8589C33.8116 43.7702 33.7846 43.6696 33.7847 43.5672C33.7847 43.4648 33.8117 43.3642 33.8629 43.2755C34.9741 41.3544 36.6865 39.9768 38.685 39.3238C37.6965 38.7353 36.9284 37.8386 36.4989 36.7714C36.0693 35.7042 36.0019 34.5255 36.3071 33.4163C36.6123 32.307 37.2731 31.3287 38.1881 30.6314C39.1032 29.9341 40.2218 29.5565 41.3722 29.5565C42.5227 29.5565 43.6413 29.9341 44.5563 30.6314C45.4714 31.3287 46.1322 32.307 46.4374 33.4163C46.7425 34.5255 46.6752 35.7042 46.2456 36.7714C45.816 37.8386 45.048 38.7353 44.0595 39.3238C46.0579 39.9768 47.7704 41.3544 48.8816 43.2755C48.9329 43.3642 48.96 43.4648 48.9602 43.5673C48.9603 43.6697 48.9334 43.7704 48.8823 43.8592Z"
          fill="white"/>
    <path d="M95.3799 42.6672C95.3286 42.7559 95.2549 42.8296 95.1662 42.8809C95.0774 42.9321 94.9767 42.9591 94.8742 42.959H80.8653C80.7629 42.9589 80.6623 42.9319 80.5737 42.8806C80.485 42.8293 80.4114 42.7556 80.3603 42.6669C80.3091 42.5782 80.2822 42.4776 80.2822 42.3752C80.2823 42.2728 80.3092 42.1722 80.3604 42.0835C81.4717 40.1624 83.1841 38.7848 85.1826 38.1318C84.194 37.5433 83.426 36.6466 82.9964 35.5794C82.5669 34.5122 82.4995 33.3335 82.8046 32.2242C83.1098 31.115 83.7707 30.1367 84.6857 29.4394C85.6007 28.7421 86.7194 28.3644 87.8698 28.3644C89.0202 28.3644 90.1388 28.7421 91.0539 29.4394C91.9689 30.1367 92.6298 31.115 92.9349 32.2242C93.2401 33.3335 93.1727 34.5122 92.7431 35.5794C92.3136 36.6466 91.5455 37.5433 90.557 38.1318C92.5555 38.7848 94.2679 40.1624 95.3791 42.0835C95.4305 42.1722 95.4576 42.2728 95.4577 42.3752C95.4578 42.4777 95.431 42.5784 95.3799 42.6672Z"
          fill="white"/>
    <defs>
        <filter id="filter0_d_223_317" x="17.1436" y="8.65833" width="48.7654" height="53.7758"
                filterUnits="userSpaceOnUse" color-interpolation-filters="sRGB">
            <feFlood flood-opacity="0" result="BackgroundImageFix"/>
            <feColorMatrix in="SourceAlpha" type="matrix" values="0 0 0 0 0 0 0 0 0 0 0 0 0 0 0 0 0 0 127 0"
                           result="hardAlpha"/>
            <feOffset dx="2"/>
            <feComposite in2="hardAlpha" operator="out"/>
            <feColorMatrix type="matrix" values="0 0 0 0 0 0 0 0 0 0 0 0 0 0 0 0 0 0 1 0"/>
            <feBlend mode="normal" in2="BackgroundImageFix" result="effect1_dropShadow_223_317"/>
            <feBlend mode="normal" in="SourceGraphic" in2="effect1_dropShadow_223_317" result="shape"/>
        </filter>
        <linearGradient id="paint0_linear_223_317" x1="62.5" y1="8.65833" x2="62.5" y2="62.4341"
                        gradientUnits="userSpaceOnUse">
            <stop stop-color="#BC1F7D"/>
            <stop offset="1" stop-color="#E674CC"/>
        </linearGradient>
        <linearGradient id="paint1_linear_223_317" x1="40.5262" y1="8.65833" x2="40.5262" y2="62.4341"
                        gradientUnits="userSpaceOnUse">
            <stop stop-color="#3EA9F7"/>
            <stop offset="1" stop-color="#633EF7"/>
        </linearGradient>
    </defs>
</svg>
